<?xml version="1.0" encoding="UTF-8"?>
<svg width="11px" height="10px" viewBox="0 0 11 10" version="1.1" xmlns="http://www.w3.org/2000/svg" xmlns:xlink="http://www.w3.org/1999/xlink">
    <!-- Generator: Sketch 49 (51002) - http://www.bohemiancoding.com/sketch -->
    <title>Page 1</title>
    <desc>Created with Sketch.</desc>
    <defs></defs>
    <g id="Page-1" stroke="none" stroke-width="1" fill="none" fill-rule="evenodd" stroke-linecap="round" stroke-linejoin="round">
        <g id="模版管理" transform="translate(-117.000000, -89.000000)" stroke-width="0.75">
            <g id="算法配置" transform="translate(104.000000, 82.000000)">
                <g id="模板" transform="translate(14.000000, 7.500000)">
                    <g id="button-mubanguanli">
                        <g id="Page-1">
                            <path d="M8.24174251,4.5 C8.24174251,4.24828974 8.21221624,4.00201207 8.15829871,3.76478873 L8.69939964,3.47082495 C8.9869598,3.31509054 9.08516673,2.96921529 8.91956289,2.69879276 L8.36819195,1.80181087 C8.20258811,1.53138833 7.83479353,1.43843058 7.54787524,1.59476861 L7.00292306,1.89054326 C6.61651409,1.56217304 6.15885696,1.30804829 5.6524173,1.15352113 L5.6524173,0.565593561 C5.6524173,0.253521127 5.38282965,0 5.05098009,0 L3.94952197,0 C3.61703053,0 3.34808476,0.253521127 3.34808476,0.565593561 L3.34808476,1.15352113 C2.84100322,1.30804829 2.38398797,1.56217304 1.99693712,1.89054326 L1.45262682,1.59476861 C1.16570853,1.43843058 0.797272076,1.53138833 0.631668233,1.80181087 L0.0802972986,2.69879276 C-0.0853065444,2.96921529 0.0135422611,3.31509054 0.300460547,3.47082495 L0.842203351,3.76478873 C0.788285821,4.00201207 0.758759554,4.24828974 0.758759554,4.5 C0.758759554,4.75231388 0.788285821,4.99798793 0.842203351,5.23581489 L0.300460547,5.52917505 C0.0135422611,5.68551308 -0.0853065444,6.03078471 0.0802972986,6.30120724 L0.631668233,7.19879276 C0.797272076,7.46921529 1.16570853,7.56156942 1.45262682,7.40523139 L1.99693712,7.11006036 C2.38398797,7.43782696 2.84100322,7.69255533 3.34808476,7.84708249 L3.34808476,8.43501006 C3.34808476,8.74708249 3.61703053,9 3.94952197,9 L5.05098009,9 C5.38282965,9 5.6524173,8.74708249 5.6524173,8.43501006 L5.6524173,7.84708249 C6.15885696,7.69255533 6.61651409,7.43782696 7.00292306,7.11006036 L7.54787524,7.40523139 C7.83479353,7.56156942 8.20258811,7.46921529 8.36819195,7.19879276 L8.91956289,6.30120724 C9.08516673,6.03078471 8.9869598,5.68551308 8.69939964,5.52917505 L8.15829871,5.23581489 C8.21221624,4.99798793 8.24174251,4.75231388 8.24174251,4.5 Z" id="Stroke-1" stroke="#508DE4"></path>
                            <path d="M3,4.49969218 C3,3.67166017 3.67132006,3 4.50030794,3 C5.32806405,3 6,3.67166017 6,4.49969218 C6,5.32833983 5.32806405,6 4.50030794,6 C3.67132006,6 3,5.32833983 3,4.49969218 Z" id="Stroke-3" stroke="#42C8A8"></path>
                        </g>
                    </g>
                </g>
            </g>
        </g>
    </g>
</svg>